<svg xmlns="http://www.w3.org/2000/svg" width="1200" height="760" viewBox="0 0 1200 760">
  <defs>
    <linearGradient id="wallpaper" x1="0" y1="0" x2="1" y2="1">
      <stop offset="0%" stop-color="#f7f7ff" />
      <stop offset="36%" stop-color="#d7f0ff" />
      <stop offset="72%" stop-color="#ffe6f1" />
      <stop offset="100%" stop-color="#e8e2ff" />
    </linearGradient>
    <filter id="softBlur" x="-25%" y="-25%" width="150%" height="150%">
      <feGaussianBlur stdDeviation="56" />
    </filter>
    <filter id="glassBackdropBlur" x="-25%" y="-25%" width="150%" height="150%">
      <feGaussianBlur stdDeviation="18" />
    </filter>
    <filter id="shadow" x="-20%" y="-20%" width="140%" height="140%">
      <feGaussianBlur in="SourceAlpha" stdDeviation="14" result="blur" />
      <feOffset in="blur" dx="0" dy="12" result="off" />
      <feFlood flood-color="#000000" flood-opacity="0.22" result="flood" />
      <feComposite in="flood" in2="off" operator="in" result="shadow" />
      <feComposite in="shadow" in2="SourceAlpha" operator="out" result="outerShadow" />
      <feMerge>
        <feMergeNode in="outerShadow" />
      </feMerge>
    </filter>
    <clipPath id="windowClip">
      <rect x="100" y="60" rx="12" ry="12" width="1000" height="640" />
    </clipPath>
    <clipPath id="segClip">
      <rect x="380" y="74" width="440" height="28" rx="8" ry="8" />
    </clipPath>
    <style>
      .bg { fill: url(#wallpaper); }
      .win { fill: #f5f5f7; fill-opacity: 0.55; stroke: #d0d0d6; stroke-width: 1; }
      .titlebar { fill: #f5f5f7; fill-opacity: 0.14; }
      .sep { stroke: #d7d7dd; stroke-width: 1; }

      .content { fill: #f5f5f7; fill-opacity: 0.55; }
      .sidebar { fill: #efeff2; fill-opacity: 0.65; }
      .divider { stroke: #e6e6eb; stroke-width: 1; }

      .text { fill: #1c1c1e; font-family: -apple-system, BlinkMacSystemFont, "SF Pro Text", Helvetica, Arial, sans-serif; }
      .muted { fill: #6e6e73; font-family: -apple-system, BlinkMacSystemFont, "SF Pro Text", Helvetica, Arial, sans-serif; }
      .onPrimary { fill: #ffffff; font-weight: 700; }
      .onAccentPrimary { fill: #ffffff; font-weight: 700; }
      .onAccentSecondary { fill: #ffffff; fill-opacity: 0.82; }
      .h1 { font-size: 14px; font-weight: 700; }
      .h2 { font-size: 18px; font-weight: 800; }
      .label { font-size: 12px; font-weight: 600; }
      .body { font-size: 12px; }
      .mono { font-family: ui-monospace, SFMono-Regular, Menlo, Monaco, Consolas, "Liberation Mono", "Courier New", monospace; }

      .segWrap { fill: #ececf0; fill-opacity: 0.45; stroke: #d1d1d6; stroke-width: 1; }
      .segSel { fill: #dfe0e6; fill-opacity: 0.55; }
      .segText { font-size: 12px; font-weight: 700; }
      .segDivider { stroke: #d1d1d6; stroke-width: 1; }

      .rowSel { fill: #0a84ff; }
      .row { fill: transparent; }

      .field { fill: #ffffff; fill-opacity: 0.90; stroke: #cfcfd6; stroke-width: 1; }
      .btn { fill: #ffffff; fill-opacity: 0.90; stroke: #cfcfd6; stroke-width: 1; }
      .btnPrimary { fill: #0a84ff; stroke: #0a84ff; stroke-width: 1; }

      .ok { fill: #2fb344; font-weight: 700; }
    </style>
  </defs>

  <rect class="bg" x="0" y="0" width="1200" height="760" />
  <g opacity="0.85">
    <circle cx="200" cy="150" r="260" fill="#6fd6ff" opacity="0.34" filter="url(#softBlur)" />
    <circle cx="960" cy="160" r="280" fill="#ff7ac8" opacity="0.14" filter="url(#softBlur)" />
    <circle cx="860" cy="640" r="340" fill="#8a7cff" opacity="0.18" filter="url(#softBlur)" />
    <circle cx="240" cy="680" r="320" fill="#ff7ac8" opacity="0.18" filter="url(#softBlur)" />
  </g>

  <!-- Window -->
  <rect x="100" y="60" rx="12" ry="12" width="1000" height="640" fill="#000000" filter="url(#shadow)" />
  <!-- Glass backdrop (simulated) -->
  <g clip-path="url(#windowClip)">
    <g filter="url(#glassBackdropBlur)">
      <rect class="bg" x="0" y="0" width="1200" height="760" />
      <g opacity="0.85">
        <circle cx="200" cy="150" r="260" fill="#6fd6ff" opacity="0.34" filter="url(#softBlur)" />
        <circle cx="960" cy="160" r="280" fill="#ff7ac8" opacity="0.14" filter="url(#softBlur)" />
        <circle cx="860" cy="640" r="340" fill="#8a7cff" opacity="0.18" filter="url(#softBlur)" />
        <circle cx="240" cy="680" r="320" fill="#ff7ac8" opacity="0.18" filter="url(#softBlur)" />
      </g>
    </g>
  </g>
  <rect class="win" x="100" y="60" rx="12" ry="12" width="1000" height="640" />
  <rect class="titlebar" x="100" y="60" width="1000" height="52" clip-path="url(#windowClip)" />
  <line class="sep" x1="100" y1="112" x2="1100" y2="112" />

  <!-- Traffic lights -->
  <circle cx="128" cy="86" r="6" fill="#ff5f57" />
  <circle cx="146" cy="86" r="6" fill="#febc2e" />
  <circle cx="164" cy="86" r="6" fill="#28c840" />

  <text class="text h1" x="210" y="92" text-anchor="start">Settings</text>

  <!-- Segmented control backdrop (simulated glass) -->
  <g clip-path="url(#segClip)">
    <g filter="url(#glassBackdropBlur)">
      <rect class="bg" x="0" y="0" width="1200" height="760" />
      <g opacity="0.85">
        <circle cx="200" cy="150" r="260" fill="#6fd6ff" opacity="0.34" filter="url(#softBlur)" />
        <circle cx="960" cy="160" r="280" fill="#ff7ac8" opacity="0.14" filter="url(#softBlur)" />
        <circle cx="860" cy="640" r="340" fill="#8a7cff" opacity="0.18" filter="url(#softBlur)" />
        <circle cx="240" cy="680" r="320" fill="#ff7ac8" opacity="0.18" filter="url(#softBlur)" />
      </g>
    </g>
  </g>
  <rect class="segWrap" x="380" y="74" width="440" height="28" rx="8" ry="8" />
  <rect class="segSel" x="492" y="76" width="108" height="24" rx="7" ry="7" />
  <line class="segDivider" x1="490" y1="76" x2="490" y2="100" />
  <line class="segDivider" x1="600" y1="76" x2="600" y2="100" />
  <line class="segDivider" x1="710" y1="76" x2="710" y2="100" />
  <text class="muted segText" x="435" y="94" text-anchor="middle">Targets</text>
  <text class="text segText" x="545" y="94" text-anchor="middle">Endpoints</text>
  <text class="muted segText" x="655" y="94" text-anchor="middle">Recovery Key</text>
  <text class="muted segText" x="765" y="94" text-anchor="middle">Schedule</text>

  <!-- Content -->
  <rect class="sidebar" x="100" y="112" width="260" height="588" clip-path="url(#windowClip)" />
  <rect class="content" x="360" y="112" width="740" height="588" clip-path="url(#windowClip)" />
  <line class="divider" x1="360" y1="112" x2="360" y2="700" />

  <!-- Sidebar: endpoint list -->
  <rect class="rowSel" x="110" y="130" width="240" height="48" rx="6" ry="6" />
  <text class="text label onAccentPrimary" x="124" y="150">default</text>
  <text class="text body mono onAccentSecondary" x="124" y="168">Chat: 770190749</text>

  <rect class="row" x="110" y="184" width="240" height="48" rx="6" ry="6" />
  <text class="text label" x="124" y="204">ep_12ab34cd</text>
  <text class="muted body mono" x="124" y="222">Chat: —</text>

  <!-- Sidebar footer (+ / -) -->
  <line class="divider" x1="100" y1="650" x2="360" y2="650" />
  <rect class="btn" x="116" y="664" width="34" height="26" rx="7" ry="7" />
  <text class="text h1" x="133" y="683" text-anchor="middle">+</text>
  <rect class="btn" x="158" y="664" width="34" height="26" rx="7" ry="7" />
  <text class="text h1" x="175" y="683" text-anchor="middle">–</text>

  <!-- Detail pane -->
  <text class="text h2" x="390" y="154">Endpoint</text>

  <!-- ID -->
  <text class="text body" x="390" y="186">ID</text>
  <text class="muted body mono" x="1068" y="186" text-anchor="end">default</text>

  <!-- Mode -->
  <text class="text body" x="390" y="216">Mode</text>
  <text class="muted body mono" x="1068" y="216" text-anchor="end">mtproto</text>

  <line class="divider" x1="390" y1="240" x2="1068" y2="240" />

  <!-- Chat ID -->
  <text class="text body" x="390" y="270">Chat ID</text>
  <rect class="field" x="808" y="254" width="260" height="26" rx="6" ry="6" />
  <text class="text body" x="822" y="271">770190749</text>

  <!-- Bot token -->
  <text class="text body" x="390" y="302">Bot token</text>
  <text class="ok body" x="1068" y="302" text-anchor="end">Saved (encrypted)</text>
  <rect class="field" x="390" y="312" width="568" height="26" rx="6" ry="6" />
  <text class="muted body mono" x="404" y="329">•••••••••••••••••••••••••••</text>
  <rect class="btn" x="968" y="312" width="100" height="26" rx="6" ry="6" />
  <text class="text body" x="1018" y="329" text-anchor="middle">Save token</text>

  <line class="divider" x1="390" y1="372" x2="1068" y2="372" />

  <!-- API -->
  <text class="text label" x="390" y="410">Telegram MTProto (global)</text>

  <text class="text body" x="390" y="440">API ID</text>
  <rect class="field" x="818" y="424" width="250" height="26" rx="6" ry="6" />
  <text class="text body" x="832" y="441">14712068</text>

  <text class="text body" x="390" y="472">API hash</text>
  <text class="ok body" x="1068" y="472" text-anchor="end">Saved (encrypted)</text>
  <rect class="field" x="390" y="482" width="568" height="26" rx="6" ry="6" />
  <text class="muted body mono" x="404" y="499">•••••••••••••••••••••••••••</text>
  <rect class="btn" x="968" y="482" width="100" height="26" rx="6" ry="6" />
  <text class="text body" x="1018" y="499" text-anchor="middle">Save api_hash</text>

  <line class="divider" x1="390" y1="548" x2="1068" y2="548" />

  <rect class="btn" x="390" y="572" width="120" height="28" rx="8" ry="8" />
  <text class="text body" x="450" y="591" text-anchor="middle">Clear sessions</text>

  <rect class="btnPrimary" x="390" y="614" width="140" height="30" rx="8" ry="8" />
  <text class="text body onPrimary" x="460" y="634" text-anchor="middle">Test connection</text>

  <text class="muted body" x="1068" y="591" text-anchor="end">Session: saved</text>
  <text class="muted body" x="1068" y="634" text-anchor="end">Not validated</text>

  <!-- Delete hint -->
  <text class="muted body" x="390" y="668">Delete: go to Targets to unbind if referenced</text>
</svg>
