<svg xmlns="http://www.w3.org/2000/svg" width="1200" height="760" viewBox="0 0 1200 760">
  <defs>
    <style>
      .bg { fill: #ffffff; }
      .win { fill: #f7f7f9; stroke: #d0d0d6; stroke-width: 1; }
      .titlebar { fill: #f5f5f7; }
      .toolbar { fill: #f5f5f7; }
      .sep { stroke: #d7d7dd; stroke-width: 1; }
      .text { fill: #1c1c1e; font-family: -apple-system, BlinkMacSystemFont, "SF Pro Text", Helvetica, Arial, sans-serif; }
      .muted { fill: #6e6e73; font-family: -apple-system, BlinkMacSystemFont, "SF Pro Text", Helvetica, Arial, sans-serif; }
      .h1 { font-size: 14px; font-weight: 700; }
      .label { font-size: 12px; font-weight: 600; }
      .body { font-size: 12px; }
      .mono { font-family: ui-monospace, SFMono-Regular, Menlo, Monaco, Consolas, "Liberation Mono", "Courier New", monospace; font-size: 11px; }

      .toolItem { fill: none; }
      .toolItemSel { fill: #e5e5ea; stroke: #d1d1d6; stroke-width: 1; }
      .toolIcon { fill: #6e6e73; }
      .toolIconSel { fill: #0a84ff; }

      .splitBorder { fill: #ffffff; stroke: #e6e6eb; stroke-width: 1; }
      .tableHead { fill: #f5f5f7; stroke: #e6e6eb; stroke-width: 1; }
      .row { fill: #ffffff; }
      .rowSel { fill: #e8f1ff; }
      .rowLine { stroke: #e6e6eb; stroke-width: 1; }

      .group { fill: #ffffff; stroke: #e6e6eb; stroke-width: 1; }
      .field { fill: #ffffff; stroke: #cfcfd6; stroke-width: 1; }
      .btn { fill: #ffffff; stroke: #cfcfd6; stroke-width: 1; }
      .btnPrimary { fill: #0a84ff; stroke: #0a84ff; stroke-width: 1; }
      .btnText { fill: #1c1c1e; font-size: 12px; font-weight: 600; }
      .btnTextOnPrimary { fill: #ffffff; font-size: 12px; font-weight: 700; }
      .hint { fill: #6e6e73; font-size: 11px; }
    </style>
  </defs>

  <rect class="bg" x="0" y="0" width="1200" height="760" />

  <!-- Window (macOS Preferences-style: titlebar + toolbar, no in-content tabs) -->
  <rect class="win" x="100" y="60" rx="12" ry="12" width="1000" height="640" />
  <rect class="titlebar" x="100" y="60" rx="12" ry="12" width="1000" height="52" />
  <rect class="toolbar" x="100" y="112" width="1000" height="60" />
  <line class="sep" x1="100" y1="112" x2="1100" y2="112" />
  <line class="sep" x1="100" y1="172" x2="1100" y2="172" />

  <!-- Traffic lights -->
  <circle cx="128" cy="86" r="6" fill="#ff5f57" />
  <circle cx="146" cy="86" r="6" fill="#febc2e" />
  <circle cx="164" cy="86" r="6" fill="#28c840" />

  <text class="text h1" x="600" y="92" text-anchor="middle">TelevyBackup Settings</text>

  <!-- Toolbar items -->
  <!-- Targets (selected) -->
  <rect class="toolItemSel" x="415" y="120" width="110" height="44" rx="8" ry="8" />
  <!-- Iconify: tabler:folder -->
  <g transform="translate(460 124) scale(0.85)" color="#0a84ff" fill="none" stroke="currentColor" stroke-linecap="round" stroke-linejoin="round" stroke-width="2">
    <path d="M5 4h4l3 3h7a2 2 0 0 1 2 2v8a2 2 0 0 1-2 2H5a2 2 0 0 1-2-2V6a2 2 0 0 1 2-2" />
  </g>
  <text class="text body" x="470" y="155" text-anchor="middle">Targets</text>

  <!-- Recovery Key -->
  <rect class="toolItem" x="545" y="120" width="110" height="44" rx="8" ry="8" />
  <!-- Iconify: tabler:key -->
  <g transform="translate(590 123) scale(0.85)" color="#6e6e73" fill="none" stroke="currentColor" stroke-linecap="round" stroke-linejoin="round" stroke-width="2">
    <path d="m16.555 3.843l3.602 3.602a2.877 2.877 0 0 1 0 4.069l-2.643 2.643a2.877 2.877 0 0 1-4.069 0l-.301-.301l-6.558 6.558a2 2 0 0 1-1.239.578L5.172 21H4a1 1 0 0 1-.993-.883L3 20v-1.172a2 2 0 0 1 .467-1.284l.119-.13L4 17h2v-2h2v-2l2.144-2.144l-.301-.301a2.877 2.877 0 0 1 0-4.069l2.643-2.643a2.877 2.877 0 0 1 4.069 0M15 9h.01" />
  </g>
  <text class="muted body" x="600" y="157" text-anchor="middle">Recovery Key</text>

  <!-- Schedule -->
  <rect class="toolItem" x="675" y="120" width="110" height="44" rx="8" ry="8" />
  <!-- Iconify: tabler:clock -->
  <g transform="translate(720 125) scale(0.85)" color="#6e6e73" fill="none" stroke="currentColor" stroke-linecap="round" stroke-linejoin="round" stroke-width="2">
    <path d="M3 12a9 9 0 1 0 18 0a9 9 0 0 0-18 0" />
    <path d="M12 7v5l3 3" />
  </g>
  <text class="muted body" x="730" y="157" text-anchor="middle">Schedule</text>

  <!-- Split view -->
  <rect class="splitBorder" x="120" y="192" width="310" height="488" rx="8" ry="8" />
  <rect class="splitBorder" x="450" y="192" width="630" height="488" rx="8" ry="8" />

  <!-- Left: targets list -->
  <rect class="tableHead" x="120" y="192" width="310" height="34" rx="8" ry="8" />
  <text class="muted body" x="140" y="214">Targets</text>

  <rect class="rowSel" x="121" y="228" width="308" height="34" />
  <text class="text body mono" x="140" y="250">/AAA/BBB</text>
  <line class="rowLine" x1="120" y1="262" x2="430" y2="262" />

  <rect class="row" x="121" y="262" width="308" height="34" />
  <text class="text body mono" x="140" y="284">/TimeMachine/Backups</text>
  <line class="rowLine" x1="120" y1="296" x2="430" y2="296" />

  <rect class="row" x="121" y="296" width="308" height="34" />
  <text class="text body mono" x="140" y="318">/Projects/Archive</text>
  <line class="rowLine" x1="120" y1="330" x2="430" y2="330" />

  <!-- Add/Remove -->
  <rect class="btn" x="130" y="642" width="26" height="22" rx="6" ry="6" />
  <text class="text body" x="143" y="658" text-anchor="middle">+</text>
  <rect class="btn" x="162" y="642" width="26" height="22" rx="6" ry="6" />
  <text class="text body" x="175" y="658" text-anchor="middle">–</text>
  <text class="hint" x="200" y="658">One local directory = one target</text>

  <!-- Right: selected target editor -->
  <text class="text label" x="470" y="220">Selected Target</text>

  <!-- Group: Source -->
  <rect class="group" x="466" y="236" width="598" height="86" rx="8" ry="8" />
  <text class="muted body" x="486" y="258">Source folder</text>
  <rect class="field" x="486" y="266" width="430" height="28" rx="6" ry="6" />
  <text class="text body mono" x="498" y="285">/AAA/BBB</text>
  <rect class="btn" x="926" y="266" width="120" height="28" rx="6" ry="6" />
  <text class="text btnText" x="986" y="285" text-anchor="middle">Choose…</text>

  <!-- Group: Telegram (per-target bot info) -->
  <rect id="group-telegram" class="group" x="466" y="336" width="598" height="216" rx="8" ry="8" />
  <text class="muted body" x="486" y="358">Telegram (bot + chat)</text>

  <text class="muted body" x="486" y="388">endpoint_id</text>
  <rect class="field" x="486" y="396" width="220" height="28" rx="6" ry="6" />
  <text class="text body mono" x="498" y="415">default</text>
  <rect class="btn" x="716" y="396" width="148" height="28" rx="6" ry="6" />
  <text class="text btnText" x="790" y="415" text-anchor="middle">Re-use…</text>

  <text class="muted body" x="486" y="452">Chat ID</text>
  <rect class="field" x="486" y="460" width="378" height="28" rx="6" ry="6" />
  <text class="muted body mono" x="498" y="479">-100123…</text>

  <text class="muted body" x="486" y="506">Bot token</text>
  <text class="hint" x="560" y="506">(stored securely)</text>
  <rect id="btn-set-token" class="btn" x="486" y="514" width="128" height="28" rx="6" ry="6" />
  <text class="text btnText" x="550" y="533" text-anchor="middle">Set token…</text>
  <rect id="btn-test-connection" class="btn" x="624" y="514" width="150" height="28" rx="6" ry="6" />
  <text class="text btnText" x="699" y="533" text-anchor="middle">Test connection</text>
  <text id="telegram-validation-status" class="hint" x="786" y="533">Not validated</text>

  <!-- Group: Schedule -->
  <rect class="group" x="466" y="562" width="598" height="88" rx="8" ry="8" />
  <text class="muted body" x="486" y="584">Schedule (per target)</text>
  <text class="text body" x="486" y="612">Inherit global schedule</text>
  <circle cx="646" cy="608" r="8" fill="#0a84ff" opacity="0.12"/>
  <circle cx="646" cy="608" r="4" fill="#0a84ff"/>
  <text class="hint" x="670" y="612">Daily 03:00</text>
  <rect class="btn" x="926" y="592" width="120" height="28" rx="6" ry="6" />
  <text class="text btnText" x="986" y="611" text-anchor="middle">Override…</text>

  <!-- Footer -->
  <text class="hint" x="466" y="664">Changes are saved automatically.</text>
</svg>
